<?xml version="1.0" encoding="UTF-8" standalone="no"?><!DOCTYPE svg PUBLIC "-//W3C//DTD SVG 1.1//EN" "http://www.w3.org/Graphics/SVG/1.1/DTD/svg11.dtd"><svg width="100%" height="100%" viewBox="0 0 31 32" version="1.1" xmlns="http://www.w3.org/2000/svg" xmlns:xlink="http://www.w3.org/1999/xlink" xml:space="preserve" xmlns:serif="http://www.serif.com/" style="fill-rule:evenodd;clip-rule:evenodd;stroke-linejoin:round;stroke-miterlimit:2;"><path d="M15.761,20.927c0,-0.062 -0.066,-0.279 -0.1,-0.434c-0.335,-1.24 -0.536,-2.016 -0.603,-2.947c-0.068,-0.993 -0.303,-4.5 -0.303,-7.787c0,-0.743 -0.502,-0.928 -1.004,-0.928c-0.77,-0 -1.004,0.495 -1.004,0.928c-0,3.35 0.234,7.043 0.301,8.036c0.067,0.931 0.302,1.768 0.671,3.132c0.166,0.588 0.501,0.928 1.036,0.928c0.672,0 1.008,-0.309 1.008,-0.928l-0.002,-0Zm-15.761,-6.287c0,3.258 3.284,7.215 6.807,7.215c2.149,0 3.923,-1.548 3.923,-3.16c0,-1.8 -0.805,-2.297 -0.805,-5.4c-0,-1.676 0.302,-2.669 0.403,-3.04c0.033,-0.124 0.133,-0.372 0.133,-0.496c0,-0.619 -0.267,-0.928 -0.937,-0.928c-0.469,-0 -0.971,0.309 -1.138,0.928c-0.235,0.867 -0.47,1.86 -0.47,3.536c-0,3.413 0.772,3.631 0.772,5.337c-0,0.683 -0.906,1.366 -1.88,1.366c-2.416,-0 -4.8,-3.124 -4.8,-5.358c0,-6.823 5.539,-12.783 12.918,-12.783c9.259,0 13.922,7.014 13.922,15.576c-0,6.822 -6.276,11.726 -13.658,11.726c-4.831,-0 -7.548,-1.893 -9.726,-3.88c-0.671,-0.62 -0.973,-0.838 -1.343,-0.838c-0.671,0 -1.007,0.311 -1.007,0.932c0,0.341 0.235,0.589 0.907,1.21c2.683,2.483 6.137,4.433 11.169,4.433c8.487,0 15.666,-5.737 15.666,-13.583c0,-9.554 -5.598,-17.433 -15.93,-17.433c-8.487,0 -14.926,6.793 -14.926,14.64Zm20.794,-3.952c0.672,-0 1.142,0.062 1.813,0.372c0.369,0.186 0.604,0.248 0.873,0.248c0.671,0 1.007,-0.309 1.007,-0.928c-0,-0.341 -0.336,-0.681 -1.007,-0.991c-0.672,-0.311 -1.679,-0.558 -2.686,-0.558c-2.081,-0 -4.022,1.671 -4.022,3.595c-0,2.42 2.713,3.041 5.029,3.817c1.779,0.59 3.357,1.055 3.357,1.893c-0,0.621 -2.014,1.862 -6.042,1.862c-0.67,-0 -1.005,0.309 -1.005,0.929c-0,0.619 0.335,0.928 1.005,0.928c4.028,0 8.05,-1.238 8.05,-3.719c0,-2.11 -2.444,-2.948 -4.693,-3.662c-1.947,-0.621 -3.693,-1.086 -3.693,-1.986c0,-0.931 1.007,-1.8 2.014,-1.8Z" style="fill:#caa5c7;fill-rule:nonzero;"/></svg>