<?xml version="1.0" standalone="no"?>
<!DOCTYPE svg PUBLIC "-//W3C//DTD SVG 20010904//EN"
 "http://www.w3.org/TR/2001/REC-SVG-20010904/DTD/svg10.dtd">
<svg version="1.0" xmlns="http://www.w3.org/2000/svg"
 width="260.000000pt" height="260.000000pt" viewBox="0 0 260.000000 260.000000"
 preserveAspectRatio="xMidYMid meet">
<metadata>
Created by potrace 1.14, written by Peter Selinger 2001-2017
</metadata>
<g transform="translate(0.000000,260.000000) scale(0.100000,-0.100000)"
fill="#000000" stroke="none">
<path d="M1158 2419 c-482 -48 -872 -403 -958 -871 -19 -102 -20 -219 -4 -284
59 -222 266 -413 458 -420 118 -5 216 41 273 127 36 55 38 120 6 245 -32 126
-37 341 -10 441 21 76 15 108 -22 121 -60 21 -109 -25 -125 -118 -3 -19 -9
-48 -12 -65 -12 -59 -6 -259 10 -330 37 -160 41 -195 26 -223 -36 -63 -133
-82 -224 -43 -70 30 -169 133 -209 218 -29 63 -32 76 -32 168 0 115 5 153 36
250 102 331 377 572 729 639 72 14 289 15 350 2 14 -3 39 -8 55 -12 111 -21
265 -90 354 -156 185 -140 305 -329 370 -584 28 -112 33 -150 37 -319 3 -128
1 -162 -17 -230 -83 -321 -353 -557 -734 -641 -81 -18 -309 -27 -375 -14 -25
4 -62 11 -84 14 -60 10 -186 55 -246 88 -71 40 -137 88 -228 165 -58 49 -81
63 -106 63 -69 0 -87 -67 -33 -122 180 -180 389 -292 627 -334 178 -31 430
-14 605 42 397 127 665 413 730 779 12 67 13 277 1 355 -3 19 -8 51 -11 70
-26 171 -102 364 -203 520 -47 72 -201 226 -277 277 -143 96 -323 160 -505
178 -104 10 -175 11 -252 4z"/>
<path d="M1148 1778 c-15 -5 -30 -19 -34 -31 -10 -30 -4 -349 10 -562 10 -139
46 -286 79 -323 37 -40 117 -18 119 34 0 11 -9 60 -21 111 -30 131 -35 188
-46 568 -6 180 -11 198 -58 207 -13 2 -35 0 -49 -4z"/>
<path d="M1647 1779 c-218 -33 -323 -268 -180 -400 41 -39 97 -64 285 -130
181 -62 223 -82 245 -115 12 -18 11 -24 -9 -49 -26 -33 -101 -68 -183 -85 -65
-14 -78 -15 -200 -24 -100 -8 -121 -27 -102 -98 6 -21 15 -29 42 -34 39 -7
188 2 250 16 22 5 51 11 65 14 53 10 141 46 188 76 153 101 130 265 -50 353
-30 15 -129 52 -219 83 -176 59 -200 71 -225 109 -15 23 -15 27 6 69 16 33 32
50 64 66 52 25 90 24 175 -3 81 -25 121 -24 143 3 47 57 -25 119 -169 146 -48
9 -80 10 -126 3z"/>
</g>
</svg>
